<?xml version="1.0" standalone="no"?>
<!DOCTYPE svg PUBLIC "-//W3C//DTD SVG 20010904//EN"
 "http://www.w3.org/TR/2001/REC-SVG-20010904/DTD/svg10.dtd">
<svg version="1.0" xmlns="http://www.w3.org/2000/svg"
 width="460.000000pt" height="460.000000pt" viewBox="0 0 460.000000 460.000000"
 preserveAspectRatio="xMidYMid meet">
<metadata>
Created by potrace 1.14, written by Peter Selinger 2001-2017
</metadata>
<g transform="translate(0.000000,460.000000) scale(0.100000,-0.100000)"
fill="#000000" stroke="none">
<path d="M2170 4064 c-178 -16 -365 -70 -529 -155 -115 -59 -116 -59 -211
-130 -242 -181 -434 -457 -516 -744 -115 -404 -46 -853 184 -1199 65 -98 74
-108 183 -218 l96 -98 -35 -162 c-26 -118 -36 -188 -37 -254 0 -85 2 -95 37
-165 41 -81 54 -97 113 -148 30 -26 39 -40 37 -61 -2 -17 9 -45 31 -78 l35
-51 -206 2 c-221 2 -313 -6 -293 -26 9 -9 305 -13 1179 -15 1121 -3 1292 -1
1292 18 0 20 -56 24 -257 22 -117 -2 -213 0 -213 3 0 3 10 16 21 28 23 24 49
77 49 101 0 8 -7 16 -16 18 -10 2 -3 13 25 34 97 74 161 202 161 320 0 36 -11
115 -24 177 -14 62 -31 143 -39 181 l-15 70 78 75 c269 260 430 643 430 1022
0 382 -164 771 -436 1028 -219 208 -437 323 -721 381 -90 19 -312 32 -403 24z
m-607 -811 c4 -3 2 -12 -4 -20 -17 -20 -335 -19 -342 1 -3 8 -3 17 0 20 9 8
338 8 346 -1z m1307 -13 c0 -20 -5 -20 -577 -18 -541 3 -578 4 -581 21 -3 16
30 17 577 17 575 0 581 0 581 -20z m545 0 c0 -13 -23 -15 -150 -15 -135 0
-150 2 -153 18 -3 16 7 17 150 15 128 -3 153 -5 153 -18z m-1137 -89 c-103
-27 -263 -134 -379 -254 -30 -32 -53 -48 -65 -45 -15 3 -8 14 36 59 159 161
322 259 430 258 l45 -1 -67 -17z m-868 -71 c0 -19 -7 -20 -94 -20 -71 0 -95 3
-99 14 -9 23 2 26 100 26 86 0 93 -1 93 -20z m587 0 c-23 -18 -40 -20 -221
-20 -189 0 -196 1 -196 20 0 19 7 20 221 20 l222 0 -26 -20z m1033 0 c0 -19
-7 -20 -207 -20 -191 0 -210 2 -233 20 l-25 20 233 0 c225 0 232 -1 232 -20z
m385 0 c0 -12 -22 -15 -129 -18 -125 -3 -156 3 -141 27 4 8 49 11 138 9 109
-3 132 -6 132 -18z m-942 -146 c68 -16 157 -48 157 -58 0 -2 -28 5 -62 16 -75
23 -242 36 -252 19 -9 -14 -61 -14 -86 -1 -25 14 -120 -22 -166 -62 -37 -33
-48 -22 -11 12 88 83 253 112 420 74z m-658 -14 c-17 -19 -31 -20 -307 -20
-281 0 -288 0 -288 20 0 20 7 20 307 20 305 0 306 0 288 -20z m1600 0 c0 -13
-43 -15 -314 -18 -308 -2 -341 1 -341 29 0 5 141 8 328 7 283 -3 327 -5 327
-18z m-1465 -52 c0 -13 3 -34 6 -48 4 -18 1 -16 -10 9 -18 38 -20 61 -6 61 6
0 10 -10 10 -22z m-143 -72 c-10 -21 -13 -22 -21 -9 -5 10 -4 18 5 24 23 15
28 10 16 -15z m-397 -36 c0 -19 -7 -20 -95 -20 -88 0 -95 1 -95 20 0 19 7 20
95 20 88 0 95 -1 95 -20z m278 0 c-10 -16 -24 -20 -70 -20 -55 0 -76 10 -63
30 3 6 37 10 76 10 67 0 69 -1 57 -20z m1727 0 c0 -13 -36 -15 -251 -18 -241
-2 -251 -2 -269 18 l-18 20 269 -2 c231 -3 269 -5 269 -18z m-1653 -25 c-3 -5
-20 -32 -38 -60 -100 -159 -149 -380 -110 -500 3 -11 -1 -4 -11 15 -27 56 -28
164 -4 261 34 135 142 340 162 308 4 -7 5 -18 1 -24z m148 -69 c0 -2 -14 -18
-30 -36 -45 -48 -64 -125 -57 -234 3 -50 8 -102 12 -116 3 -14 -2 -7 -11 15
-12 28 -17 73 -18 150 -1 96 2 115 21 152 13 23 33 49 45 57 22 15 38 20 38
12z m-304 -62 c-3 -9 -6 -18 -6 -20 0 -2 -85 -4 -190 -4 -183 0 -190 1 -190
20 0 19 7 20 196 20 175 0 195 -2 190 -16z m1532 -6 c3 -16 -6 -18 -72 -18
-42 0 -76 2 -76 4 0 2 -3 12 -6 21 -6 14 3 16 72 13 66 -3 79 -6 82 -20z m277
2 c0 -12 -16 -16 -74 -18 -85 -3 -103 1 -95 23 9 23 169 18 169 -5z m-1386
-170 c34 -23 113 -41 133 -29 10 7 9 15 -7 41 l-19 33 24 -17 c53 -37 151 -77
231 -93 79 -16 114 -16 210 1 l36 6 7 -63 c7 -63 49 -169 67 -169 13 0 11 -77
-5 -135 -22 -82 -42 -121 -88 -171 -68 -74 -143 -113 -262 -135 -122 -22 -282
28 -373 118 -73 72 -105 146 -111 255 -4 80 -3 89 21 120 45 60 87 184 87 259
1 27 3 31 10 17 6 -9 23 -26 39 -38z m-479 10 c0 -19 -7 -20 -163 -20 -90 0
-166 3 -170 6 -3 3 -3 12 0 20 4 11 38 14 169 14 157 0 164 -1 164 -20z m1865
0 c0 -13 -28 -15 -184 -18 -182 -2 -200 0 -201 31 0 4 87 6 193 5 163 -3 192
-5 192 -18z m-1982 -154 c3 -8 3 -17 0 -20 -8 -8 -208 -8 -216 0 -3 3 -3 12 0
20 8 20 208 20 216 0z m1662 -6 c0 -8 -10 -16 -22 -18 -18 -3 -23 2 -23 18 0
16 5 21 23 18 12 -2 22 -10 22 -18z m320 0 c0 -12 -17 -16 -84 -18 -100 -3
-119 1 -101 23 19 22 185 17 185 -5z m-1600 -67 c24 -65 32 -183 13 -183 -36
0 -97 107 -98 171 0 40 14 59 46 59 17 0 26 -11 39 -47z m1033 22 c18 -40 -2
-115 -44 -164 -20 -23 -39 -41 -42 -41 -16 0 -2 126 18 165 11 21 20 45 20 52
0 23 36 14 48 -12z m-988 -30 c0 -5 -5 -3 -10 5 -5 8 -10 20 -10 25 0 6 5 3
10 -5 5 -8 10 -19 10 -25z m-280 -85 c11 -20 8 -20 -173 -20 -101 0 -186 3
-190 6 -3 3 -3 12 0 20 4 11 39 14 179 14 163 0 174 -1 184 -20z m1835 0 c0
-13 -28 -15 -184 -18 -105 -1 -189 2 -194 7 -26 26 9 31 191 29 158 -3 187 -5
187 -18z m-1682 -227 c4 -3 -19 -19 -51 -35 -121 -61 -195 -165 -222 -312 -5
-28 -25 -125 -45 -216 -42 -189 -48 -308 -20 -374 9 -21 14 -41 11 -44 -3 -3
-17 21 -32 54 -39 89 -36 163 20 437 25 125 57 251 70 281 41 91 107 153 211
198 46 20 49 20 58 11z m1312 -293 c40 -37 43 -55 34 -160 -8 -90 -28 -317
-49 -570 -9 -105 -12 -117 -35 -137 l-26 -23 -665 0 -665 0 -24 25 c-14 13
-25 32 -25 42 0 26 -28 370 -40 493 -6 58 -12 148 -13 201 -2 108 8 131 67
148 18 6 332 9 723 8 l691 -2 27 -25z m-1614 -717 c13 -16 12 -17 -3 -4 -17
13 -22 21 -14 21 2 0 10 -8 17 -17z m162 -190 c18 -17 68 -18 710 -21 680 -2
692 -2 719 18 15 11 34 20 43 20 29 0 -15 -58 -60 -80 -40 -19 -64 -20 -698
-20 -714 0 -701 -1 -745 55 -12 15 -22 32 -22 36 0 15 33 10 53 -8z"/>
<path d="M2060 2193 c-20 -7 -50 -34 -50 -44 0 -4 16 -2 35 4 24 7 49 7 80 0
48 -11 56 -6 27 20 -20 19 -69 29 -92 20z"/>
<path d="M2464 2186 c-34 -15 -59 -54 -27 -41 37 14 83 17 114 6 40 -14 45
-10 22 18 -23 27 -70 35 -109 17z"/>
<path d="M2084 2112 c-6 -4 -16 -17 -23 -29 -37 -71 39 -154 83 -91 41 58 -8
155 -60 120z m46 -52 c0 -11 -4 -20 -10 -20 -5 0 -10 9 -10 20 0 11 5 20 10
20 6 0 10 -9 10 -20z"/>
<path d="M2460 2100 c-26 -26 -27 -90 -2 -113 46 -42 100 2 89 71 -10 59 -50
79 -87 42z m30 -40 c0 -11 -4 -20 -10 -20 -5 0 -10 9 -10 20 0 11 5 20 10 20
6 0 10 -9 10 -20z"/>
<path d="M2179 1871 c6 -11 20 -25 31 -31 26 -14 90 -12 118 4 20 11 16 12
-38 8 -52 -4 -66 -1 -92 18 -29 21 -29 21 -19 1z"/>
<path d="M2255 1359 c-89 -20 -154 -108 -155 -207 0 -60 15 -103 53 -148 15
-18 27 -41 27 -52 0 -34 23 -41 130 -43 90 -1 105 1 117 17 7 10 13 25 13 34
0 9 10 25 21 36 62 55 77 173 32 255 -28 52 -100 109 -137 109 -12 0 -30 2
-41 4 -11 2 -38 0 -60 -5z m133 -48 c113 -58 135 -195 47 -291 -13 -14 -25
-36 -27 -50 -3 -27 -38 -42 -38 -16 0 9 -4 16 -10 16 -5 0 -10 -7 -10 -15 0
-23 -27 -18 -34 8 l-7 22 -9 -22 c-12 -29 -30 -29 -38 -1 l-5 22 -9 -23 c-10
-28 -32 -22 -37 10 -1 13 -18 40 -36 61 -58 63 -60 169 -5 232 58 66 145 84
218 47z"/>
<path d="M2212 1174 c-27 -18 -29 -55 -4 -77 24 -22 45 -21 65 1 22 25 21 48
-3 72 -24 24 -29 24 -58 4z"/>
<path d="M2347 1172 c-33 -36 -13 -92 32 -92 16 0 51 38 51 55 0 19 -35 55
-53 55 -8 0 -21 -8 -30 -18z"/>
</g>
</svg>
